<svg width="24" height="24" viewBox="0 0 24 24" fill="none" xmlns="http://www.w3.org/2000/svg">
<g opacity="0.6">
<path fill-rule="evenodd" clip-rule="evenodd" d="M12 10C14.7614 10 17 7.76142 17 5C17 2.23858 14.7614 0 12 0C9.23858 0 7 2.23858 7 5C7 7.76142 9.23858 10 12 10Z" fill="black"/>
<path d="M20 23C21.9475 23 22.9212 23 23.5193 22.16C24.1174 21.32 23.8581 20.5712 23.3395 19.0736C22.7507 17.3735 21.7816 15.8111 20.4853 14.5147C18.2348 12.2643 15.1826 11 12 11C8.8174 11 5.76516 12.2643 3.51472 14.5147C2.21838 15.8111 1.24927 17.3735 0.660544 19.0736C0.141946 20.5712 -0.117352 21.32 0.480719 22.16C1.07879 23 2.05253 23 4 23L12 23H20Z" fill="black"/>
</g>
</svg>
